<svg width="144" height="29" viewBox="0 0 144 29" fill="none" xmlns="http://www.w3.org/2000/svg">
<path d="M14.1099 2.92705C14.4093 2.00574 15.7127 2.00574 16.012 2.92705L18.0001 9.04583C18.134 9.45785 18.518 9.73681 18.9512 9.73681H25.3849C26.3536 9.73681 26.7564 10.9764 25.9726 11.5458L20.7677 15.3274C20.4172 15.5821 20.2706 16.0334 20.4044 16.4455L22.3925 22.5642C22.6919 23.4856 21.6374 24.2517 20.8537 23.6823L15.6488 19.9007C15.2983 19.646 14.8237 19.646 14.4732 19.9007L9.26824 23.6823C8.48453 24.2517 7.43005 23.4856 7.7294 22.5642L9.71751 16.4455C9.85139 16.0334 9.70473 15.5821 9.35424 15.3274L4.1493 11.5458C3.36559 10.9764 3.76836 9.73681 4.73708 9.73681H11.1707C11.604 9.73681 11.9879 9.45785 12.1218 9.04583L14.1099 2.92705Z" fill="#F8A921"/>
<path d="M71.5188 2.92705C71.8182 2.00574 73.1216 2.00574 73.421 2.92705L75.4091 9.04583C75.5429 9.45785 75.9269 9.73681 76.3601 9.73681H82.7938C83.7625 9.73681 84.1653 10.9764 83.3816 11.5458L78.1766 15.3274C77.8261 15.5821 77.6795 16.0334 77.8134 16.4455L79.8015 22.5642C80.1008 23.4856 79.0463 24.2517 78.2626 23.6823L73.0577 19.9007C72.7072 19.646 72.2326 19.646 71.8821 19.9007L66.6772 23.6823C65.8935 24.2517 64.839 23.4856 65.1383 22.5642L67.1264 16.4455C67.2603 16.0334 67.1137 15.5821 66.7632 15.3274L61.5582 11.5458C60.7745 10.9764 61.1773 9.73681 62.146 9.73681H68.5797C69.0129 9.73681 69.3969 9.45785 69.5307 9.04583L71.5188 2.92705Z" fill="#F8A921"/>
<path d="M42.8176 2.8124C43.1234 1.90482 44.4071 1.90482 44.7129 2.8124L46.8167 9.05612C46.9538 9.46288 47.3352 9.73681 47.7644 9.73681H54.493C55.4705 9.73681 55.8674 10.9949 55.0668 11.5558L49.6865 15.3252C49.3232 15.5797 49.171 16.0431 49.3127 16.4635L51.3824 22.6059C51.6907 23.5209 50.6517 24.2982 49.861 23.7442L44.339 19.8756C43.9946 19.6343 43.5359 19.6343 43.1915 19.8756L37.6695 23.7442C36.8788 24.2982 35.8398 23.5209 36.1481 22.6059L38.2178 16.4635C38.3594 16.0431 38.2072 15.5797 37.8439 15.3252L32.4637 11.5558C31.6631 10.9949 32.06 9.73681 33.0375 9.73681H39.7661C40.1953 9.73681 40.5767 9.46288 40.7137 9.05612L42.8176 2.8124Z" fill="#F8A921"/>
<path d="M100.226 2.8124C100.532 1.90482 101.816 1.90482 102.122 2.8124L104.225 9.05612C104.362 9.46288 104.744 9.73681 105.173 9.73681H111.902C112.879 9.73681 113.276 10.9949 112.475 11.5558L107.095 15.3252C106.732 15.5797 106.58 16.0431 106.721 16.4635L108.791 22.6059C109.099 23.5209 108.06 24.2982 107.27 23.7442L101.748 19.8756C101.403 19.6343 100.945 19.6343 100.6 19.8756L95.0782 23.7442C94.2875 24.2982 93.2485 23.5209 93.5568 22.6059L95.6265 16.4635C95.7681 16.0431 95.6159 15.5797 95.2526 15.3252L89.8724 11.5558C89.0718 10.9949 89.4687 9.73681 90.4462 9.73681H97.1748C97.604 9.73681 97.9854 9.46288 98.1224 9.05612L100.226 2.8124Z" fill="#F8A921"/>
<path d="M128.928 2.92705C129.227 2.00574 130.53 2.00574 130.83 2.92705L132.818 9.04583C132.952 9.45785 133.336 9.73681 133.769 9.73681H140.202C141.171 9.73681 141.574 10.9764 140.79 11.5458L135.585 15.3274C135.235 15.5821 135.088 16.0334 135.222 16.4455L137.21 22.5642C137.51 23.4856 136.455 24.2517 135.671 23.6823L130.466 19.9007C130.116 19.646 129.641 19.646 129.291 19.9007L124.086 23.6823C123.302 24.2517 122.248 23.4856 122.547 22.5642L124.535 16.4455C124.669 16.0334 124.522 15.5821 124.172 15.3274L118.967 11.5458C118.183 10.9764 118.586 9.73681 119.555 9.73681H125.988C126.422 9.73681 126.806 9.45785 126.939 9.04583L128.928 2.92705Z" fill="#F8A921"/>
</svg>
