<svg width="25" height="24" viewBox="0 0 25 24" fill="none" xmlns="http://www.w3.org/2000/svg">
<path fill-rule="evenodd" clip-rule="evenodd" d="M8.00027 6V6.75H6.01327C5.05327 6.75 4.24927 7.474 4.14827 8.429L2.88527 20.429C2.8578 20.6903 2.88558 20.9545 2.96679 21.2045C3.048 21.4544 3.18084 21.6844 3.35669 21.8797C3.53254 22.075 3.74748 22.2311 3.98755 22.338C4.22763 22.4448 4.48749 22.5 4.75027 22.5H20.2503C20.5131 22.5 20.7729 22.4448 21.013 22.338C21.2531 22.2311 21.468 22.075 21.6439 21.8797C21.8197 21.6844 21.9525 21.4544 22.0338 21.2045C22.115 20.9545 22.1427 20.6903 22.1153 20.429L20.8523 8.429C20.8038 7.96815 20.5865 7.54155 20.2421 7.23151C19.8977 6.92146 19.4507 6.74993 18.9873 6.75H17.0003V6C17.0003 4.80653 16.5262 3.66193 15.6823 2.81802C14.8383 1.97411 13.6937 1.5 12.5003 1.5C11.3068 1.5 10.1622 1.97411 9.31829 2.81802C8.47438 3.66193 8.00027 4.80653 8.00027 6ZM12.5003 3C11.7046 3 10.9416 3.31607 10.379 3.87868C9.81634 4.44129 9.50027 5.20435 9.50027 6V6.75H15.5003V6C15.5003 5.20435 15.1842 4.44129 14.6216 3.87868C14.059 3.31607 13.2959 3 12.5003 3ZM9.50027 11.25C9.50027 12.0456 9.81634 12.8087 10.379 13.3713C10.9416 13.9339 11.7046 14.25 12.5003 14.25C13.2959 14.25 14.059 13.9339 14.6216 13.3713C15.1842 12.8087 15.5003 12.0456 15.5003 11.25V10.5C15.5003 10.3011 15.5793 10.1103 15.7199 9.96967C15.8606 9.82902 16.0514 9.75 16.2503 9.75C16.4492 9.75 16.64 9.82902 16.7806 9.96967C16.9213 10.1103 17.0003 10.3011 17.0003 10.5V11.25C17.0003 12.4435 16.5262 13.5881 15.6823 14.432C14.8383 15.2759 13.6937 15.75 12.5003 15.75C11.3068 15.75 10.1622 15.2759 9.31829 14.432C8.47438 13.5881 8.00027 12.4435 8.00027 11.25V10.5C8.00027 10.3011 8.07929 10.1103 8.21994 9.96967C8.36059 9.82902 8.55136 9.75 8.75027 9.75C8.94918 9.75 9.13995 9.82902 9.2806 9.96967C9.42125 10.1103 9.50027 10.3011 9.50027 10.5V11.25Z" fill="white"/>
</svg>
