<svg width="25" height="24" viewBox="0 0 25 24" fill="none" xmlns="http://www.w3.org/2000/svg">
<path d="M2.75 2.25C2.55109 2.25 2.36032 2.32902 2.21967 2.46967C2.07902 2.61032 2 2.80109 2 3C2 3.19891 2.07902 3.38968 2.21967 3.53033C2.36032 3.67098 2.55109 3.75 2.75 3.75H4.136C4.306 3.75 4.454 3.864 4.498 4.028L7.056 13.62C6.25257 13.8293 5.54126 14.2992 5.03349 14.9561C4.52572 15.613 4.25017 16.4197 4.25 17.25C4.25 17.664 4.586 18 5 18H20.75C20.9489 18 21.1397 17.921 21.2803 17.7803C21.421 17.6397 21.5 17.4489 21.5 17.25C21.5 17.0511 21.421 16.8603 21.2803 16.7197C21.1397 16.579 20.9489 16.5 20.75 16.5H5.878C6.03313 16.0612 6.32052 15.6813 6.70056 15.4127C7.0806 15.144 7.5346 14.9999 8 15H19.218C19.3585 15 19.4962 14.9605 19.6153 14.8861C19.7345 14.8117 19.8304 14.7053 19.892 14.579C21.0337 12.2361 22.0224 9.82171 22.852 7.351C22.8848 7.25326 22.897 7.14981 22.8881 7.04712C22.8791 6.94442 22.849 6.84468 22.7997 6.75413C22.7505 6.66357 22.6831 6.58415 22.6017 6.52081C22.5204 6.45747 22.4269 6.41158 22.327 6.386C17.0528 5.04115 11.622 4.40985 6.18 4.509L5.948 3.642C5.84156 3.24274 5.60621 2.88982 5.27853 2.6381C4.95086 2.38637 4.5492 2.24994 4.136 2.25H2.75ZM4.25 20.25C4.25 19.8522 4.40804 19.4706 4.68934 19.1893C4.97064 18.908 5.35218 18.75 5.75 18.75C6.14782 18.75 6.52936 18.908 6.81066 19.1893C7.09196 19.4706 7.25 19.8522 7.25 20.25C7.25 20.6478 7.09196 21.0294 6.81066 21.3107C6.52936 21.592 6.14782 21.75 5.75 21.75C5.35218 21.75 4.97064 21.592 4.68934 21.3107C4.40804 21.0294 4.25 20.6478 4.25 20.25ZM17 20.25C17 19.8522 17.158 19.4706 17.4393 19.1893C17.7206 18.908 18.1022 18.75 18.5 18.75C18.8978 18.75 19.2794 18.908 19.5607 19.1893C19.842 19.4706 20 19.8522 20 20.25C20 20.6478 19.842 21.0294 19.5607 21.3107C19.2794 21.592 18.8978 21.75 18.5 21.75C18.1022 21.75 17.7206 21.592 17.4393 21.3107C17.158 21.0294 17 20.6478 17 20.25Z" fill="url(#paint0_linear_1439_25)"/>
<defs>
<linearGradient id="paint0_linear_1439_25" x1="0.463903" y1="12" x2="23.659" y2="12" gradientUnits="userSpaceOnUse">
<stop stop-color="#F39022"/>
<stop offset="1" stop-color="#F8A921"/>
</linearGradient>
</defs>
</svg>
