<svg width="48" height="48" viewBox="0 0 48 48" fill="none" xmlns="http://www.w3.org/2000/svg">
<path d="M11.2417 44.1888C11.4245 44.789 11.7949 45.3148 12.2986 45.6889C12.8023 46.063 13.4127 46.2657 14.0401 46.2672C14.3244 46.2674 14.6072 46.227 14.8801 46.1472L33.8977 40.4208L37.3201 39.9744C37.7007 39.9253 38.0678 39.8016 38.4005 39.6104C38.7332 39.4192 39.0249 39.1643 39.259 38.8602C39.4931 38.5562 39.6649 38.2089 39.7646 37.8384C39.8643 37.4679 39.89 37.0813 39.8401 36.7008L38.0353 22.9248L43.7185 14.208L45.1201 12.0912L45.7921 11.04C46.2638 10.3182 46.4294 9.43859 46.2525 8.59468C46.0756 7.75077 45.5707 7.01168 44.8489 6.54002C44.1271 6.06836 43.2475 5.90276 42.4036 6.07964C41.5596 6.25653 40.8206 6.76141 40.3489 7.48322L39.6577 8.54402L38.2753 10.656L36.7249 13.0272L35.5681 4.21922C35.5184 3.83909 35.3943 3.47247 35.2028 3.14031C35.0114 2.80815 34.7564 2.51697 34.4524 2.2834C34.1484 2.04982 33.8013 1.87843 33.4311 1.77902C33.0608 1.67961 32.6746 1.65413 32.2945 1.70402L12.0961 4.35842C11.3613 4.45331 10.6904 4.82502 10.2203 5.39768C9.75023 5.97035 9.51638 6.70082 9.5665 7.44002L3.7585 9.18722C3.01778 9.41029 2.39593 9.91832 2.02961 10.5997C1.66328 11.281 1.58246 12.0799 1.8049 12.8208L11.2417 44.1888ZM40.4689 9.93122L41.9857 10.92L43.4977 11.9088L42.9025 12.8208L39.8737 10.8432L40.4689 9.93122ZM41.5537 8.26562C41.8166 7.86334 42.2285 7.58197 42.6988 7.4834C43.1692 7.38483 43.6594 7.47714 44.0617 7.74002C44.464 8.0029 44.7453 8.41483 44.8439 8.88517C44.9425 9.35551 44.8502 9.84574 44.5873 10.248L44.2897 10.704L41.2801 8.72162L41.5537 8.26562ZM39.0865 12.048L40.6033 13.0368L42.1153 14.0256L32.8753 28.176L31.3585 27.1872L29.8465 26.1984L39.0865 12.048ZM28.0465 31.3968L28.3345 30.4752C28.8172 30.6001 29.2456 30.88 29.5537 31.272L28.8241 31.9056C28.7454 31.9771 28.6452 32.0205 28.5392 32.0289C28.4332 32.0373 28.3274 32.0103 28.2384 31.9521C28.1495 31.8938 28.0823 31.8077 28.0476 31.7072C28.0129 31.6067 28.0125 31.4976 28.0465 31.3968ZM30.6385 30.3264C30.1551 29.7302 29.4971 29.3005 28.7569 29.0976L29.2369 27.528L31.8721 29.2512L30.6385 30.3264ZM11.2993 6.35042C11.4181 6.19602 11.5661 6.06652 11.735 5.96934C11.9038 5.87216 12.0901 5.80919 12.2833 5.78402L32.4817 3.13442C32.5472 3.12966 32.613 3.12966 32.6785 3.13442C33.0326 3.14162 33.3724 3.27527 33.6365 3.5112C33.9006 3.74714 34.0716 4.0698 34.1185 4.42082L35.5201 14.88L31.8433 20.5008L24.6145 21.4608C24.4235 21.4729 24.2452 21.5604 24.1187 21.7039C23.9923 21.8475 23.928 22.0355 23.9401 22.2264C23.9522 22.4174 24.0396 22.5957 24.1832 22.7222C24.3268 22.8487 24.5147 22.9129 24.7057 22.9008H24.8017L30.8065 22.08L28.2481 26.0016C28.2472 26.0176 28.2472 26.0336 28.2481 26.0496C28.2297 26.0797 28.2152 26.1119 28.2049 26.1456L27.7585 27.5856L17.5249 28.9632C17.4303 28.9695 17.338 28.9944 17.253 29.0364C17.1681 29.0784 17.0922 29.1367 17.0298 29.208C16.9674 29.2794 16.9197 29.3623 16.8893 29.452C16.859 29.5418 16.8466 29.6367 16.8529 29.7312C16.8592 29.8258 16.8841 29.9182 16.9261 30.0031C16.9681 30.088 17.0264 30.1639 17.0977 30.2263C17.169 30.2887 17.2519 30.3364 17.3417 30.3668C17.4315 30.3971 17.5263 30.4095 17.6209 30.4032H17.7121L27.2497 29.1552L26.6833 30.9888C26.56 31.3871 26.5696 31.8146 26.7107 32.2069C26.8519 32.5992 27.1169 32.9349 27.4657 33.1632C27.7778 33.3689 28.1431 33.479 28.5169 33.48C28.9803 33.477 29.427 33.3065 29.7745 33L33.5569 29.7264L33.5953 29.6832C33.6246 29.6561 33.6504 29.6255 33.6721 29.592L36.8017 24.792L38.4001 36.888C38.4259 37.0807 38.4133 37.2767 38.3631 37.4645C38.3128 37.6523 38.2259 37.8283 38.1073 37.9824C37.9925 38.135 37.8485 38.2632 37.6837 38.3596C37.5189 38.4561 37.3366 38.5187 37.1473 38.544L16.9297 41.1984C16.7371 41.2233 16.5415 41.2101 16.3541 41.1594C16.1666 41.1087 15.991 41.0216 15.8372 40.9031C15.6834 40.7845 15.5545 40.6368 15.4578 40.4684C15.3611 40.3 15.2986 40.1142 15.2737 39.9216L11.0065 7.44482C10.9554 7.05565 11.0607 6.66211 11.2993 6.35042ZM4.1761 10.56L9.7441 8.88482L13.8433 40.1088C13.936 40.8084 14.2786 41.4508 14.808 41.9175C15.3373 42.3842 16.0176 42.6437 16.7233 42.648C16.8518 42.648 16.9802 42.6383 17.1073 42.6192L25.0177 41.5824L14.4577 44.76C14.0841 44.8721 13.6812 44.8314 13.3375 44.647C12.9938 44.4625 12.7373 44.1493 12.6241 43.776L3.1825 12.408C3.12634 12.2214 3.10749 12.0256 3.12704 11.8318C3.14658 11.6379 3.20413 11.4498 3.2964 11.2782C3.38868 11.1065 3.51386 10.9548 3.6648 10.8316C3.81574 10.7083 3.98948 10.6161 4.1761 10.56ZM18.6913 9.79202C18.6668 9.60302 18.7182 9.41201 18.8342 9.26085C18.9503 9.10969 19.1216 9.01072 19.3105 8.98562L30.8305 7.46882C30.9251 7.45653 31.0211 7.46298 31.1132 7.48781C31.2052 7.51264 31.2915 7.55535 31.367 7.61352C31.4426 7.67169 31.5059 7.74416 31.5535 7.82682C31.601 7.90947 31.6318 8.00067 31.6441 8.09522C31.6564 8.18977 31.6499 8.28582 31.6251 8.37788C31.6003 8.46994 31.5576 8.5562 31.4994 8.63175C31.4412 8.7073 31.3688 8.77066 31.2861 8.8182C31.2035 8.86574 31.1123 8.89653 31.0177 8.90882L19.4977 10.4208H19.4065C19.2315 10.42 19.0626 10.3559 18.9311 10.2404C18.7997 10.1248 18.7145 9.96553 18.6913 9.79202ZM15.2065 16.8288C15.1944 16.7342 15.2013 16.638 15.2268 16.5461C15.2522 16.4541 15.2956 16.3681 15.3546 16.2931C15.4135 16.218 15.4868 16.1555 15.5702 16.109C15.6535 16.0625 15.7453 16.0331 15.8401 16.0224L31.6801 13.92C31.8711 13.8952 32.0641 13.9472 32.2166 14.0647C32.3692 14.1822 32.4689 14.3555 32.4937 14.5464C32.5185 14.7374 32.4665 14.9304 32.349 15.083C32.2315 15.2355 32.0583 15.3352 31.8673 15.36L16.0129 17.4528H15.9217C15.7474 17.4522 15.5791 17.3888 15.4478 17.2742C15.3164 17.1596 15.2307 17.0015 15.2065 16.8288ZM20.5873 22.704C20.6008 22.7983 20.5955 22.8944 20.5716 22.9866C20.5477 23.0789 20.5057 23.1655 20.4481 23.2414C20.3905 23.3173 20.3185 23.381 20.236 23.4288C20.1536 23.4766 20.0626 23.5076 19.9681 23.52L16.8625 23.928H16.7713C16.5803 23.9408 16.3922 23.8771 16.2481 23.7511C16.1041 23.6251 16.016 23.447 16.0033 23.256C15.9906 23.0651 16.0542 22.8769 16.1802 22.7328C16.3063 22.5888 16.4843 22.5008 16.6753 22.488L19.7809 22.08C19.8748 22.0679 19.9702 22.0745 20.0617 22.0993C20.1531 22.1241 20.2387 22.1667 20.3136 22.2247C20.3885 22.2827 20.4512 22.3548 20.4982 22.4371C20.5452 22.5193 20.5754 22.61 20.5873 22.704ZM17.7601 36.24C17.7356 36.051 17.787 35.86 17.903 35.7089C18.0191 35.5577 18.1904 35.4587 18.3793 35.4336L23.9041 34.7088C23.9986 34.6962 24.0948 34.7024 24.1869 34.7269C24.2791 34.7514 24.3656 34.7939 24.4413 34.8518C24.5171 34.9098 24.5807 34.9821 24.6286 35.0646C24.6764 35.1471 24.7075 35.2383 24.7201 35.3328C24.7327 35.4274 24.7266 35.5235 24.702 35.6157C24.6775 35.7078 24.635 35.7943 24.5771 35.8701C24.5192 35.9458 24.4469 36.0094 24.3643 36.0573C24.2818 36.1051 24.1907 36.1362 24.0961 36.1488L18.5617 36.8592H18.4705C18.2974 36.8586 18.1304 36.7957 17.9999 36.682C17.8695 36.5683 17.7843 36.4114 17.7601 36.24Z" fill="white"/>
</svg>
