<svg width="17" height="22" viewBox="0 0 17 22" fill="none" xmlns="http://www.w3.org/2000/svg">
<path d="M15.7479 15.7987L9.69994 16.4473C9.58745 16.4586 9.53121 16.3199 9.6212 16.2486L15.538 11.6404C15.9204 11.3255 16.1679 10.838 16.0629 10.3131C15.9579 9.51071 15.2942 8.98578 14.4543 9.09076L8.0239 10.0319C7.91141 10.0469 7.85142 9.90441 7.94141 9.83317L14.3156 4.96628C15.5717 3.98766 15.6767 2.0679 14.5256 0.950537C13.4795 -0.0955813 11.7997 -0.0618355 10.7536 0.984283L0.483596 11.4342C0.101144 11.8542 -0.0750836 12.4128 0.0299032 13.0053C0.206131 13.9502 1.14726 14.5763 2.09214 14.4038L7.6302 13.2752C7.75018 13.249 7.81392 13.4102 7.71269 13.4777L1.57096 17.411C0.802306 17.8984 0.4536 18.772 0.697319 19.6457C0.941039 20.7968 2.09589 21.4605 3.21325 21.183L12.3959 18.922C12.5008 18.8958 12.5758 19.0158 12.5083 19.0983L11.076 20.868C10.6936 21.3555 11.3197 22.0191 11.8447 21.6367L16.5616 17.7597C17.4015 17.0623 16.8428 15.6974 15.7592 15.8024L15.7479 15.7987Z" fill="url(#paint0_linear_1509_371)"/>
<defs>
<linearGradient id="paint0_linear_1509_371" x1="-1.24762" y1="10.9666" x2="17.5915" y2="10.9666" gradientUnits="userSpaceOnUse">
<stop stop-color="#F39022"/>
<stop offset="1" stop-color="#F8A921"/>
</linearGradient>
</defs>
</svg>
