<svg width="206" height="47" viewBox="0 0 206 47" fill="none" xmlns="http://www.w3.org/2000/svg">
<path d="M58.581 30.7395C57.2643 30.7395 56.16 30.5484 55.2681 30.1661C54.3903 29.7697 53.7178 29.26 53.2506 28.6371C52.7976 28 52.5569 27.3346 52.5286 26.6408C52.5286 26.5134 52.571 26.4072 52.656 26.3223C52.7409 26.2374 52.8471 26.1949 52.9745 26.1949H54.8646C55.0486 26.1949 55.1831 26.2374 55.2681 26.3223C55.3672 26.3931 55.4521 26.4851 55.5229 26.5984C55.6079 26.8674 55.7707 27.1364 56.0113 27.4054C56.252 27.6602 56.5777 27.8726 56.9882 28.0425C57.413 28.2123 57.9439 28.2973 58.581 28.2973C59.6003 28.2973 60.3577 28.1274 60.8533 27.7876C61.3629 27.4478 61.6178 26.9877 61.6178 26.4072C61.6178 25.9967 61.4833 25.671 61.2143 25.4304C60.9453 25.1755 60.5276 24.949 59.9613 24.7508C59.4092 24.5384 58.673 24.319 57.7527 24.0925C56.6909 23.8376 55.799 23.5332 55.0769 23.1793C54.3691 22.8112 53.8311 22.3511 53.463 21.7989C53.109 21.2468 52.9321 20.546 52.9321 19.6965C52.9321 18.8754 53.1515 18.1463 53.5904 17.5092C54.0434 16.8721 54.6805 16.3695 55.5017 16.0014C56.337 15.6333 57.328 15.4492 58.4748 15.4492C59.395 15.4492 60.2091 15.5766 60.917 15.8315C61.6249 16.0722 62.2124 16.3978 62.6796 16.8084C63.1468 17.2048 63.5007 17.6366 63.7414 18.1038C63.9963 18.5568 64.1308 19.0028 64.1449 19.4417C64.1449 19.5549 64.1024 19.6611 64.0175 19.7602C63.9467 19.8452 63.8405 19.8876 63.699 19.8876H61.724C61.6107 19.8876 61.4974 19.8593 61.3842 19.8027C61.2709 19.7461 61.1789 19.6399 61.1081 19.4841C61.0232 19.0453 60.7471 18.6701 60.2799 18.3586C59.8127 18.0471 59.211 17.8914 58.4748 17.8914C57.7103 17.8914 57.0944 18.033 56.6272 18.3161C56.16 18.5993 55.9264 19.0382 55.9264 19.6328C55.9264 20.0292 56.0397 20.3619 56.2662 20.6309C56.5069 20.8858 56.882 21.1123 57.3917 21.3105C57.9156 21.5087 58.6022 21.7211 59.4517 21.9476C60.6551 22.2166 61.639 22.528 62.4035 22.882C63.168 23.2359 63.7273 23.689 64.0812 24.2411C64.4352 24.7791 64.6121 25.4658 64.6121 26.3011C64.6121 27.2355 64.3573 28.0354 63.8476 28.7008C63.3521 29.352 62.6513 29.8546 61.7452 30.2086C60.8391 30.5625 59.7844 30.7395 58.581 30.7395Z" fill="white"/>
<path d="M72.7585 30.7395C71.4984 30.7395 70.4154 30.5342 69.5093 30.1236C68.6032 29.6989 67.8953 29.0547 67.3856 28.1911C66.876 27.3133 66.5999 26.2232 66.5574 24.9207C66.5433 24.3119 66.5362 23.7102 66.5362 23.1156C66.5362 22.521 66.5433 21.9122 66.5574 21.2893C66.5999 20.0009 66.883 18.9249 67.4069 18.0613C67.9307 17.1977 68.6457 16.5464 69.5518 16.1076C70.472 15.6687 71.5409 15.4492 72.7585 15.4492C73.976 15.4492 75.0449 15.6687 75.9652 16.1076C76.8854 16.5464 77.6075 17.1977 78.1313 18.0613C78.6551 18.9249 78.9383 20.0009 78.9808 21.2893C79.0091 21.9122 79.0232 22.521 79.0232 23.1156C79.0232 23.7102 79.0091 24.3119 78.9808 24.9207C78.9383 26.2232 78.6622 27.3133 78.1525 28.1911C77.6429 29.0547 76.9279 29.6989 76.0076 30.1236C75.1016 30.5342 74.0185 30.7395 72.7585 30.7395ZM72.7585 28.2973C73.6787 28.2973 74.4291 28.0283 75.0095 27.4903C75.59 26.9382 75.9015 26.0462 75.9439 24.8145C75.9723 24.1916 75.9864 23.6182 75.9864 23.0944C75.9864 22.5564 75.9723 21.983 75.9439 21.3742C75.9156 20.5531 75.7599 19.8876 75.4767 19.378C75.2077 18.8541 74.8396 18.479 74.3724 18.2524C73.9052 18.0118 73.3672 17.8914 72.7585 17.8914C72.1638 17.8914 71.6329 18.0118 71.1657 18.2524C70.6985 18.479 70.3234 18.8541 70.0402 19.378C69.7712 19.8876 69.6225 20.5531 69.5942 21.3742C69.5801 21.983 69.573 22.5564 69.573 23.0944C69.573 23.6182 69.5801 24.1916 69.5942 24.8145C69.6367 26.0462 69.9482 26.9382 70.5286 27.4903C71.1091 28.0283 71.8524 28.2973 72.7585 28.2973Z" fill="white"/>
<path d="M82.3215 30.5271C82.1799 30.5271 82.0596 30.4776 81.9605 30.3785C81.8614 30.2794 81.8118 30.159 81.8118 30.0174V16.1925C81.8118 16.0368 81.8614 15.9093 81.9605 15.8102C82.0596 15.7111 82.1799 15.6616 82.3215 15.6616H91.5382C91.6939 15.6616 91.8213 15.7111 91.9204 15.8102C92.0195 15.9093 92.0691 16.0368 92.0691 16.1925V17.679C92.0691 17.8348 92.0195 17.9622 91.9204 18.0613C91.8213 18.1463 91.6939 18.1887 91.5382 18.1887H84.7212V22.2237H91.1134C91.2692 22.2237 91.3966 22.2732 91.4957 22.3723C91.5948 22.4714 91.6443 22.5988 91.6443 22.7546V24.2411C91.6443 24.3827 91.5948 24.503 91.4957 24.6021C91.3966 24.7012 91.2692 24.7508 91.1134 24.7508H84.7212V30.0174C84.7212 30.159 84.6717 30.2794 84.5726 30.3785C84.4735 30.4776 84.3461 30.5271 84.1903 30.5271H82.3215Z" fill="white"/>
<path d="M98.3463 30.5271C98.2047 30.5271 98.0844 30.4776 97.9852 30.3785C97.8861 30.2794 97.8366 30.159 97.8366 30.0174V18.2737H93.9078C93.7663 18.2737 93.6459 18.2241 93.5468 18.125C93.4477 18.0259 93.3982 17.9056 93.3982 17.764V16.1925C93.3982 16.0368 93.4477 15.9093 93.5468 15.8102C93.6459 15.7111 93.7663 15.6616 93.9078 15.6616H104.738C104.894 15.6616 105.022 15.7111 105.121 15.8102C105.22 15.9093 105.269 16.0368 105.269 16.1925V17.764C105.269 17.9056 105.22 18.0259 105.121 18.125C105.022 18.2241 104.894 18.2737 104.738 18.2737H100.831V30.0174C100.831 30.159 100.781 30.2794 100.682 30.3785C100.583 30.4776 100.456 30.5271 100.3 30.5271H98.3463Z" fill="white"/>
<path d="M109.866 30.5271C109.654 30.5271 109.484 30.4705 109.357 30.3572C109.243 30.2298 109.166 30.0741 109.123 29.89L106.596 16.2774C106.596 16.235 106.589 16.1996 106.575 16.1713C106.575 16.1429 106.575 16.1217 106.575 16.1076C106.575 15.9801 106.617 15.8739 106.702 15.789C106.801 15.7041 106.907 15.6616 107.021 15.6616H108.89C109.243 15.6616 109.442 15.8032 109.484 16.0863L111.247 25.7064L113.158 19.4841C113.201 19.3709 113.271 19.2576 113.37 19.1444C113.484 19.0169 113.646 18.9532 113.859 18.9532H115.006C115.232 18.9532 115.395 19.0169 115.494 19.1444C115.593 19.2576 115.657 19.3709 115.685 19.4841L117.618 25.6852L119.38 16.0863C119.423 15.8032 119.621 15.6616 119.975 15.6616H121.844C121.957 15.6616 122.056 15.7041 122.141 15.789C122.226 15.8739 122.268 15.9801 122.268 16.1076C122.268 16.1217 122.268 16.1429 122.268 16.1713C122.268 16.1996 122.261 16.235 122.247 16.2774L119.72 29.89C119.692 30.0741 119.614 30.2298 119.487 30.3572C119.359 30.4705 119.189 30.5271 118.977 30.5271H117.554C117.342 30.5271 117.172 30.4705 117.044 30.3572C116.931 30.244 116.853 30.1236 116.811 29.9962L114.432 22.9032L112.054 29.9962C111.997 30.1236 111.912 30.244 111.799 30.3572C111.686 30.4705 111.516 30.5271 111.289 30.5271H109.866Z" fill="white"/>
<path d="M123.247 30.5271C123.134 30.5271 123.028 30.4846 122.929 30.3997C122.844 30.3148 122.801 30.2086 122.801 30.0812C122.801 30.0245 122.815 29.9608 122.844 29.89L127.962 16.1925C128.004 16.0509 128.082 15.9306 128.195 15.8315C128.323 15.7182 128.493 15.6616 128.705 15.6616H131.02C131.232 15.6616 131.395 15.7182 131.508 15.8315C131.621 15.9306 131.706 16.0509 131.763 16.1925L136.881 29.89C136.895 29.9608 136.902 30.0245 136.902 30.0812C136.902 30.2086 136.86 30.3148 136.775 30.3997C136.69 30.4846 136.591 30.5271 136.478 30.5271H134.63C134.432 30.5271 134.283 30.4846 134.184 30.3997C134.099 30.3006 134.042 30.2086 134.014 30.1236L133.016 27.5328H126.709L125.711 30.1236C125.682 30.2086 125.619 30.3006 125.52 30.3997C125.435 30.4846 125.293 30.5271 125.095 30.5271H123.247ZM127.452 25.0906H132.273L129.852 18.5285L127.452 25.0906Z" fill="white"/>
<path d="M139.395 30.5271C139.253 30.5271 139.133 30.4776 139.034 30.3785C138.934 30.2794 138.885 30.159 138.885 30.0174V16.1925C138.885 16.0368 138.934 15.9093 139.034 15.8102C139.133 15.7111 139.253 15.6616 139.395 15.6616H144.895C146.608 15.6616 147.96 16.058 148.951 16.8508C149.942 17.6437 150.438 18.7975 150.438 20.3124C150.438 21.36 150.176 22.2307 149.652 22.9245C149.142 23.6182 148.455 24.1208 147.592 24.4323L150.692 29.8476C150.735 29.9325 150.756 30.0104 150.756 30.0812C150.756 30.2086 150.707 30.3148 150.607 30.3997C150.522 30.4846 150.423 30.5271 150.31 30.5271H148.378C148.137 30.5271 147.953 30.4634 147.825 30.336C147.698 30.2086 147.599 30.0812 147.528 29.9537L144.789 24.9207H141.837V30.0174C141.837 30.159 141.787 30.2794 141.688 30.3785C141.603 30.4776 141.483 30.5271 141.327 30.5271H139.395ZM141.837 22.521H144.831C145.695 22.521 146.339 22.3298 146.764 21.9476C147.188 21.5512 147.401 20.999 147.401 20.2911C147.401 19.5833 147.188 19.0311 146.764 18.6347C146.353 18.2241 145.709 18.0188 144.831 18.0188H141.837V22.521Z" fill="white"/>
<path d="M153.684 30.5271C153.542 30.5271 153.422 30.4776 153.323 30.3785C153.223 30.2794 153.174 30.159 153.174 30.0174V16.1925C153.174 16.0368 153.223 15.9093 153.323 15.8102C153.422 15.7111 153.542 15.6616 153.684 15.6616H163.028C163.183 15.6616 163.311 15.7111 163.41 15.8102C163.509 15.9093 163.559 16.0368 163.559 16.1925V17.5941C163.559 17.7357 163.509 17.856 163.41 17.9551C163.311 18.0542 163.183 18.1038 163.028 18.1038H156.041V21.8626H162.56C162.716 21.8626 162.844 21.9122 162.943 22.0113C163.042 22.0962 163.091 22.2166 163.091 22.3723V23.689C163.091 23.8447 163.042 23.9721 162.943 24.0712C162.844 24.1562 162.716 24.1986 162.56 24.1986H156.041V28.0849H163.197C163.353 28.0849 163.481 28.1345 163.58 28.2336C163.679 28.3327 163.728 28.4601 163.728 28.6158V30.0174C163.728 30.159 163.679 30.2794 163.58 30.3785C163.481 30.4776 163.353 30.5271 163.197 30.5271H153.684Z" fill="white"/>
<path d="M166.066 30.5271C165.924 30.5271 165.804 30.4776 165.705 30.3785C165.606 30.2794 165.556 30.1519 165.556 29.9962V28.5097C165.556 28.2973 165.599 28.1274 165.684 28C165.769 27.8726 165.832 27.7805 165.875 27.7239L173.265 18.1675H166.278C166.123 18.1675 165.995 18.1179 165.896 18.0188C165.811 17.9197 165.769 17.7994 165.769 17.6578V16.1925C165.769 16.0368 165.811 15.9093 165.896 15.8102C165.995 15.7111 166.123 15.6616 166.278 15.6616H176.429C176.585 15.6616 176.712 15.7111 176.812 15.8102C176.911 15.9093 176.96 16.0368 176.96 16.1925V17.6578C176.96 17.8277 176.932 17.9693 176.875 18.0825C176.819 18.1958 176.755 18.302 176.684 18.4011L169.443 28H176.663C176.819 28 176.946 28.0495 177.045 28.1486C177.144 28.2477 177.194 28.3752 177.194 28.5309V30.0174C177.194 30.159 177.144 30.2794 177.045 30.3785C176.946 30.4776 176.819 30.5271 176.663 30.5271H166.066Z" fill="white"/>
<path d="M185.245 30.7395C183.985 30.7395 182.902 30.5342 181.996 30.1236C181.09 29.6989 180.382 29.0547 179.873 28.1911C179.363 27.3133 179.087 26.2232 179.044 24.9207C179.03 24.3119 179.023 23.7102 179.023 23.1156C179.023 22.521 179.03 21.9122 179.044 21.2893C179.087 20.0009 179.37 18.9249 179.894 18.0613C180.418 17.1977 181.133 16.5464 182.039 16.1076C182.959 15.6687 184.028 15.4492 185.245 15.4492C186.463 15.4492 187.532 15.6687 188.452 16.1076C189.372 16.5464 190.094 17.1977 190.618 18.0613C191.142 18.9249 191.425 20.0009 191.468 21.2893C191.496 21.9122 191.51 22.521 191.51 23.1156C191.51 23.7102 191.496 24.3119 191.468 24.9207C191.425 26.2232 191.149 27.3133 190.64 28.1911C190.13 29.0547 189.415 29.6989 188.495 30.1236C187.589 30.5342 186.505 30.7395 185.245 30.7395ZM185.245 28.2973C186.166 28.2973 186.916 28.0283 187.497 27.4903C188.077 26.9382 188.388 26.0462 188.431 24.8145C188.459 24.1916 188.473 23.6182 188.473 23.0944C188.473 22.5564 188.459 21.983 188.431 21.3742C188.403 20.5531 188.247 19.8876 187.964 19.378C187.695 18.8541 187.327 18.479 186.859 18.2524C186.392 18.0118 185.854 17.8914 185.245 17.8914C184.651 17.8914 184.12 18.0118 183.653 18.2524C183.186 18.479 182.81 18.8541 182.527 19.378C182.258 19.8876 182.11 20.5531 182.081 21.3742C182.067 21.983 182.06 22.5564 182.06 23.0944C182.06 23.6182 182.067 24.1916 182.081 24.8145C182.124 26.0462 182.435 26.9382 183.016 27.4903C183.596 28.0283 184.339 28.2973 185.245 28.2973Z" fill="white"/>
<path d="M194.808 30.5271C194.667 30.5271 194.547 30.4776 194.447 30.3785C194.348 30.2794 194.299 30.159 194.299 30.0174V16.1925C194.299 16.0368 194.348 15.9093 194.447 15.8102C194.547 15.7111 194.667 15.6616 194.808 15.6616H196.444C196.642 15.6616 196.783 15.7111 196.868 15.8102C196.968 15.8952 197.031 15.9589 197.06 16.0014L203.176 25.5153V16.1925C203.176 16.0368 203.218 15.9093 203.303 15.8102C203.402 15.7111 203.53 15.6616 203.685 15.6616H205.469C205.625 15.6616 205.752 15.7111 205.851 15.8102C205.951 15.9093 206 16.0368 206 16.1925V29.9962C206 30.1519 205.951 30.2794 205.851 30.3785C205.752 30.4776 205.632 30.5271 205.49 30.5271H203.834C203.636 30.5271 203.494 30.4776 203.409 30.3785C203.324 30.2794 203.261 30.2157 203.218 30.1873L197.123 20.8858V30.0174C197.123 30.159 197.074 30.2794 196.975 30.3785C196.876 30.4776 196.748 30.5271 196.592 30.5271H194.808Z" fill="white"/>
<g clip-path="url(#clip0_1486_1518)">
<path d="M10.2888 28.9989L10.2616 17.3877L0.00976562 23.2172L10.2888 28.9989Z" fill="#067433"/>
<path d="M0.00292969 23.2158L0.030168 34.8259L10.2831 28.9975L0.00292969 23.2158Z" fill="#7A9C2B"/>
<path d="M20.5293 0L20.5429 11.6112L30.8015 5.79393L20.5293 0Z" fill="url(#paint0_linear_1486_1518)"/>
<path d="M30.8163 17.4051L30.8027 5.79395L20.543 11.6112L30.8163 17.4051Z" fill="url(#paint1_linear_1486_1518)"/>
<path d="M30.8174 5.7998L30.8446 17.411L41.0976 11.5826L30.8174 5.7998Z" fill="#FFD900"/>
<path d="M20.5986 34.8037L20.6123 46.4149L30.8709 40.5976L20.5986 34.8037Z" fill="#00998C"/>
<path d="M30.8781 40.5985L30.8645 28.9873L20.6047 34.8046L30.8781 40.5985Z" fill="#0FAAB8"/>
<path d="M30.8652 28.9932L30.8925 40.6044L41.1454 34.776L30.8652 28.9932Z" fill="#3B2773"/>
<path d="M30.8105 17.3467L30.823 28.9579L41.0828 23.1406L30.8105 17.3467Z" fill="#AD191F"/>
<path d="M41.0886 23.1424L41.075 11.5312L30.8164 17.3485L41.0886 23.1424Z" fill="#D9222C"/>
<path d="M41.0964 34.7527L41.0828 23.1426L30.8242 28.9587L41.0964 34.7527Z" fill="#722283"/>
<path d="M10.3162 40.6669L10.3026 29.0557L0.0439453 34.8729L10.3162 40.6669Z" fill="#8CBE23"/>
<path d="M20.6111 46.455L20.5838 34.8438L10.332 40.6721L20.6111 46.455Z" fill="#005759"/>
<path d="M10.3047 29.0615L10.3319 40.6727L20.5837 34.8443L10.3047 29.0615Z" fill="#164290"/>
<path d="M18.6391 0.00878906H12.481L18.6391 6.0395V0.00878906Z" fill="#FFD600"/>
<path d="M12.4809 0.00878906H12.4446V6.07618H18.639V6.0395L12.4809 0.00878906Z" fill="url(#paint2_linear_1486_1518)"/>
<path d="M0 4.36672L0.0124842 9.84049L5.58839 4.35449L0 4.36672Z" fill="#067433"/>
<path d="M0.0126953 9.84049V9.87273L5.63513 9.8605L5.62151 4.35449H5.5886L0.0126953 9.84049Z" fill="#7A9C2B"/>
<path d="M7.2706 13.2236H3.0918L7.2706 17.3167V13.2236Z" fill="#005759"/>
<path d="M3.09235 13.2236H3.06738V17.3412H7.27116V17.3167L3.09235 13.2236Z" fill="#0FAAB8"/>
<path d="M14.1849 10.6328H10.7324L14.1849 14.0133V10.6328Z" fill="#722283"/>
<path d="M10.7323 10.6328H10.7119V14.0345H14.1848V14.0133L10.7323 10.6328Z" fill="#3B2773"/>
<path d="M11.28 17.9421V28.4816L20.5989 33.752L29.9178 28.4816V17.9421L20.5989 12.6729L11.28 17.9421Z" fill="#020203"/>
<path d="M13.0029 19.0994L19.9192 14.9863V20.9926H17.6822L17.4496 19.0994L15.2263 20.3089V22.2443H20.0792L19.9192 31.4388L13.0029 27.3112V25.1768L15.2263 25.1479V26.3574L17.6959 27.568V24.1808L13.0029 24.1519V19.0994Z" fill="white"/>
<path d="M20.9802 14.9863L21.0313 17.5265L25.9716 19.9465V21.3483L20.9802 24.3653V31.4388L28.1938 27.6881V25.2691L23.7483 27.6881V25.0268L28.1938 22.5155V19.0994V18.8149L20.9802 14.9863Z" fill="white"/>
</g>
<defs>
<linearGradient id="paint0_linear_1486_1518" x1="19.774" y1="5.8056" x2="31.1792" y2="5.8056" gradientUnits="userSpaceOnUse">
<stop stop-color="#F39022"/>
<stop offset="1" stop-color="#F8A921"/>
</linearGradient>
<linearGradient id="paint1_linear_1486_1518" x1="19.7876" y1="11.5995" x2="31.194" y2="11.5995" gradientUnits="userSpaceOnUse">
<stop stop-color="#F39022"/>
<stop offset="1" stop-color="#F8A921"/>
</linearGradient>
<linearGradient id="paint2_linear_1486_1518" x1="11.9891" y1="3.04249" x2="18.8668" y2="3.04249" gradientUnits="userSpaceOnUse">
<stop stop-color="#F39022"/>
<stop offset="1" stop-color="#F8A921"/>
</linearGradient>
<clipPath id="clip0_1486_1518">
<rect width="41.1457" height="46.4548" fill="white"/>
</clipPath>
</defs>
</svg>
