<svg width="55" height="64" viewBox="0 0 55 64" fill="none" xmlns="http://www.w3.org/2000/svg">
<path d="M13.7538 39.9509L13.7174 23.9543L0.0136719 31.9856L13.7538 39.9509Z" fill="#067433"/>
<path d="M0.00390625 31.9839L0.040316 47.9789L13.7456 39.9492L0.00390625 31.9839Z" fill="#7A9C2B"/>
<path d="M27.4414 0L27.4596 15.9966L41.1724 7.9822L27.4414 0Z" fill="url(#paint0_linear_1418_1221)"/>
<path d="M41.1935 23.9787L41.1753 7.98218L27.4609 15.9965L41.1935 23.9787Z" fill="url(#paint1_linear_1418_1221)"/>
<path d="M41.1953 7.98975L41.2317 23.9863L54.937 15.9566L41.1953 7.98975Z" fill="#FFD900"/>
<path d="M27.5352 47.9482L27.5534 63.9448L41.2662 55.9304L27.5352 47.9482Z" fill="#00998C"/>
<path d="M41.2755 55.9321L41.2573 39.9355L27.543 47.9499L41.2755 55.9321Z" fill="#0FAAB8"/>
<path d="M41.2578 39.9431L41.2942 55.9397L54.9995 47.91L41.2578 39.9431Z" fill="#3B2773"/>
<path d="M41.1855 23.8992L41.2022 39.8957L54.9166 31.8814L41.1855 23.8992Z" fill="#AD191F"/>
<path d="M54.9244 31.8828L54.9062 15.8862L41.1934 23.9006L54.9244 31.8828Z" fill="#D9222C"/>
<path d="M54.9342 47.8778L54.916 31.8828L41.2031 39.8956L54.9342 47.8778Z" fill="#722283"/>
<path d="M13.7896 56.0254L13.7714 40.0288L0.0585938 48.0432L13.7896 56.0254Z" fill="#8CBE23"/>
<path d="M27.5507 64L27.5143 48.0034L13.8105 56.0331L27.5507 64Z" fill="#005759"/>
<path d="M13.7754 40.0366L13.8118 56.0332L27.5155 48.0035L13.7754 40.0366Z" fill="#164290"/>
<path d="M24.9152 0.012207H16.6836L24.9152 8.32061V0.012207Z" fill="#FFD600"/>
<path d="M16.6833 0.012207H16.6348V8.37115H24.915V8.32061L16.6833 0.012207Z" fill="url(#paint2_linear_1418_1221)"/>
<path d="M0 6.01563L0.0166878 13.5567L7.47007 5.99878L0 6.01563Z" fill="#067433"/>
<path d="M0.0175781 13.5567V13.6012L7.53316 13.5843L7.51496 5.99878H7.47096L0.0175781 13.5567Z" fill="#7A9C2B"/>
<path d="M9.72063 18.2188H4.13477L9.72063 23.8577V18.2188Z" fill="#005759"/>
<path d="M4.13494 18.2188H4.10156V23.8914H9.7208V23.8577L4.13494 18.2188Z" fill="#0FAAB8"/>
<path d="M18.9606 14.6489H14.3457L18.9606 19.3062V14.6489Z" fill="#722283"/>
<path d="M14.3457 14.6489H14.3184V19.3353H18.9606V19.3062L14.3457 14.6489Z" fill="#3B2773"/>
<path d="M15.0781 24.7186V39.2387L27.5348 46.4996L39.9915 39.2387V24.7186L27.5348 17.4592L15.0781 24.7186Z" fill="#020203"/>
<path d="M17.3809 26.3128L26.6259 20.6462V28.921H23.6358L23.3248 26.3128L20.3528 27.9791V30.6454H26.8398L26.6259 43.3125L17.3809 37.626V34.6855L20.3528 34.6457V36.312L23.654 37.9798V33.3133L17.3809 33.2735V26.3128Z" fill="white"/>
<path d="M28.0449 20.6462L28.1132 24.1457L34.717 27.4798V29.411L28.0449 33.5675V43.3125L37.6874 38.1452V34.8126L31.7451 38.1452V34.4788L37.6874 31.0191V26.3128V25.9207L28.0449 20.6462Z" fill="white"/>
<defs>
<linearGradient id="paint0_linear_1418_1221" x1="26.4318" y1="7.99828" x2="41.6773" y2="7.99828" gradientUnits="userSpaceOnUse">
<stop stop-color="#F39022"/>
<stop offset="1" stop-color="#F8A921"/>
</linearGradient>
<linearGradient id="paint1_linear_1418_1221" x1="26.4512" y1="15.9805" x2="41.6984" y2="15.9805" gradientUnits="userSpaceOnUse">
<stop stop-color="#F39022"/>
<stop offset="1" stop-color="#F8A921"/>
</linearGradient>
<linearGradient id="paint2_linear_1418_1221" x1="16.0259" y1="4.19168" x2="25.2194" y2="4.19168" gradientUnits="userSpaceOnUse">
<stop stop-color="#F39022"/>
<stop offset="1" stop-color="#F8A921"/>
</linearGradient>
</defs>
</svg>
