<svg width="20" height="19" viewBox="0 0 20 19" fill="none" xmlns="http://www.w3.org/2000/svg">
<path fill-rule="evenodd" clip-rule="evenodd" d="M3.337 18.718C3.15841 18.7005 2.98061 18.6758 2.804 18.644C2.67429 18.6208 2.553 18.5638 2.45233 18.4787C2.35167 18.3937 2.27518 18.2836 2.23057 18.1597C2.18596 18.0357 2.17481 17.9021 2.19823 17.7724C2.22165 17.6428 2.27883 17.5215 2.364 17.421C2.77426 16.9373 3.05442 16.3571 3.178 15.735C3.201 15.62 3.156 15.418 2.924 15.192C1.274 13.587 0.25 11.41 0.25 9C0.25 3.97 4.678 0 10 0C15.322 0 19.75 3.97 19.75 9C19.75 14.03 15.322 18 10 18C9.167 18 8.357 17.903 7.583 17.721C6.31785 18.5161 4.82381 18.8669 3.337 18.718Z" fill="white"/>
</svg>
