<svg width="48" height="48" viewBox="0 0 48 48" fill="none" xmlns="http://www.w3.org/2000/svg">
<g clip-path="url(#clip0_1418_1616)">
<path d="M47.5842 34.9237L42.6642 32.4637L39.533 24.3187C39.4961 24.2224 39.4398 24.1347 39.3675 24.0612C39.2953 23.9876 39.2086 23.9298 39.113 23.8912L19.6842 16.125C19.5484 16.0709 19.3997 16.0577 19.2564 16.087C19.1132 16.1163 18.9816 16.1869 18.878 16.29L16.2867 18.8812C16.185 18.985 16.1156 19.1161 16.087 19.2585C16.0583 19.401 16.0717 19.5487 16.1255 19.6837L23.8917 39.1125C23.9303 39.2081 23.9881 39.2948 24.0617 39.367C24.1352 39.4393 24.2229 39.4956 24.3192 39.5325L32.4642 42.6637L34.9242 47.5837C34.976 47.6922 35.0531 47.7866 35.1491 47.8591C35.245 47.9315 35.3569 47.9798 35.4755 48C35.5154 48.0037 35.5556 48.0037 35.5955 48C35.7941 47.9991 35.9842 47.9196 36.1242 47.7787L47.7792 36.1237C47.865 36.0409 47.9298 35.9389 47.9683 35.8261C48.0068 35.7133 48.0178 35.5929 48.0005 35.475C47.9803 35.3564 47.932 35.2445 47.8596 35.1486C47.7871 35.0526 47.6927 34.9755 47.5842 34.9237ZM17.6967 19.5862L18.113 19.1737L27.7842 28.845C27.1468 29.7481 26.8716 30.8576 27.0128 31.9539C27.1541 33.0503 27.7016 34.0537 28.5471 34.7658C29.3925 35.4779 30.4745 35.8468 31.5789 35.7996C32.6833 35.7524 33.7297 35.2925 34.5114 34.5109C35.293 33.7292 35.7529 32.6828 35.8001 31.5784C35.8473 30.474 35.4784 29.392 34.7663 28.5466C34.0542 27.7011 33.0508 27.1536 31.9544 27.0123C30.8581 26.8711 29.7486 27.1463 28.8455 27.7837L19.1742 18.1125L19.5867 17.6962L38.2505 25.1625L41.1942 32.82L32.8205 41.1937L25.163 38.25L17.6967 19.5862ZM31.388 28.4737C32.062 28.4747 32.7149 28.7094 33.2353 29.1378C33.7558 29.5661 34.1116 30.1617 34.2422 30.823C34.3728 31.4842 34.27 32.1704 33.9515 32.7644C33.633 33.3584 33.1183 33.8237 32.4953 34.0808C31.8722 34.338 31.1792 34.3712 30.5344 34.1747C29.8896 33.9783 29.3329 33.5643 28.9591 33.0034C28.5852 32.4426 28.4174 31.7694 28.4842 31.0987C28.551 30.4279 28.8483 29.8011 29.3255 29.325C29.873 28.7791 30.6148 28.473 31.388 28.4737ZM35.8017 45.9825L33.9267 42.2325L42.2255 33.9337L45.9755 35.8087L35.8017 45.9825Z" fill="white"/>
<path d="M14.3431 40.1249C14.1997 39.9894 14.0098 39.9138 13.8125 39.9138C13.6152 39.9138 13.4253 39.9894 13.2819 40.1249L12.3294 41.0774C9.78755 37.6276 8.38531 33.4707 8.31809 29.1862C8.25087 24.9016 9.52202 20.7028 11.9544 17.1749C12.6831 17.5759 13.5222 17.7299 14.3458 17.6139C15.1695 17.4979 15.9333 17.1181 16.523 16.5315C17.1126 15.9448 17.4962 15.1828 17.6164 14.3598C17.7365 13.5367 17.5867 12.6969 17.1894 11.9662C20.7172 9.53381 24.916 8.26266 29.2006 8.32988C33.4852 8.3971 37.6421 9.79934 41.0919 12.3412L40.1244 13.2824C39.9849 13.423 39.9067 13.6131 39.9069 13.8112C39.9063 13.9099 39.9252 14.0077 39.9625 14.0991C39.9999 14.1905 40.0549 14.2736 40.1244 14.3437L43.4319 17.6249C43.5724 17.7646 43.7625 17.843 43.9606 17.843C44.1588 17.843 44.3489 17.7646 44.4894 17.6249L47.7781 14.3362C47.8479 14.2665 47.9032 14.1838 47.9409 14.0927C47.9787 14.0017 47.9981 13.9041 47.9981 13.8055C47.9981 13.707 47.9787 13.6094 47.9409 13.5183C47.9032 13.4273 47.8479 13.3446 47.7781 13.2749L44.4894 9.98617C44.3489 9.84648 44.1588 9.76807 43.9606 9.76807C43.7625 9.76807 43.5724 9.84648 43.4319 9.98617L42.1606 11.2499C39.0275 8.89228 35.3234 7.41103 31.4285 6.95828C27.5337 6.50553 23.5885 7.09759 19.9981 8.67367L24.3219 4.36117C24.8121 4.59542 25.3695 4.64845 25.8951 4.51084C26.4208 4.37323 26.8807 4.05388 27.1932 3.60944C27.5058 3.16501 27.6508 2.62422 27.6026 2.08302C27.5544 1.54182 27.316 1.0352 26.9298 0.653025C26.5436 0.270854 26.0345 0.0378436 25.4928 -0.00466857C24.9511 -0.0471808 24.4119 0.103554 23.9708 0.420794C23.5297 0.738034 23.2152 1.20127 23.0831 1.72832C22.9511 2.25537 23.01 2.81216 23.2494 3.29992L15.9519 10.6087C15.2109 10.1116 14.3204 9.8873 13.4324 9.97395C12.5444 10.0606 11.7141 10.4529 11.0832 11.0837C10.4523 11.7146 10.0601 12.545 9.9734 13.433C9.88676 14.321 10.1111 15.2115 10.6081 15.9524L3.29938 23.2499C2.80971 23.0113 2.25131 22.954 1.7234 23.0883C1.1955 23.2225 0.73227 23.5395 0.416039 23.983C0.0998084 24.4265 -0.0489457 24.9678 -0.00378998 25.5106C0.0413657 26.0535 0.277507 26.5627 0.662671 26.9479C1.04784 27.333 1.55708 27.5692 2.09991 27.6143C2.64274 27.6595 3.184 27.5107 3.62751 27.1945C4.07102 26.8783 4.38806 26.4151 4.52228 25.8871C4.65651 25.3592 4.59923 24.8008 4.36063 24.3112L8.68438 19.9987C7.10672 23.5881 6.51279 27.5327 6.96356 31.4275C7.41433 35.3223 8.89357 39.027 11.2494 42.1612L9.98188 43.4324C9.84219 43.5729 9.76378 43.763 9.76378 43.9612C9.76378 44.1593 9.84219 44.3494 9.98188 44.4899L13.2706 47.7787C13.4106 47.9195 13.6008 47.9991 13.7994 47.9999C13.8983 48 13.9963 47.9805 14.0877 47.9425C14.1791 47.9045 14.2621 47.8489 14.3319 47.7787L17.6244 44.4899C17.7641 44.3494 17.8425 44.1593 17.8425 43.9612C17.8425 43.763 17.7641 43.5729 17.6244 43.4324L14.3431 40.1249ZM43.9681 11.5687L46.1956 13.7962L43.9681 16.0237L41.7406 13.7962L43.9681 11.5687ZM24.7494 1.73617C24.8608 1.62381 25.0031 1.54709 25.1583 1.51575C25.3134 1.4844 25.4743 1.49984 25.6206 1.5601C25.767 1.62036 25.8921 1.72274 25.9802 1.85423C26.0682 1.98573 26.1152 2.14041 26.1152 2.29867C26.1152 2.45692 26.0682 2.61161 25.9802 2.74311C25.8921 2.8746 25.767 2.97697 25.6206 3.03724C25.4743 3.0975 25.3134 3.11294 25.1583 3.08159C25.0031 3.05024 24.8608 2.97353 24.7494 2.86117C24.6754 2.78733 24.6168 2.69965 24.5768 2.60313C24.5368 2.50661 24.5162 2.40315 24.5162 2.29867C24.5162 2.19418 24.5368 2.09073 24.5768 1.99421C24.6168 1.89769 24.6754 1.81 24.7494 1.73617ZM12.1494 12.1499C12.3672 11.9311 12.626 11.7574 12.9111 11.639C13.1962 11.5205 13.5019 11.4595 13.8106 11.4595C14.1194 11.4595 14.425 11.5205 14.7101 11.639C14.9952 11.7574 15.2541 11.9311 15.4719 12.1499C15.8011 12.4786 16.0254 12.8975 16.1164 13.3537C16.2075 13.8099 16.1611 14.2829 15.9833 14.7127C15.8054 15.1426 15.504 15.51 15.1173 15.7686C14.7306 16.0271 14.2758 16.1651 13.8106 16.1651C13.3454 16.1651 12.8907 16.0271 12.504 15.7686C12.1172 15.51 11.8158 15.1426 11.638 14.7127C11.4601 14.2829 11.4138 13.8099 11.5048 13.3537C11.5959 12.8975 11.8202 12.4786 12.1494 12.1499ZM2.86438 25.8749C2.71126 26.0026 2.51593 26.0684 2.31676 26.0594C2.11759 26.0504 1.92899 25.9673 1.78801 25.8263C1.64704 25.6853 1.56388 25.4967 1.55488 25.2975C1.54588 25.0984 1.61169 24.903 1.73938 24.7499C1.88945 24.6024 2.09146 24.5198 2.30188 24.5198C2.5123 24.5198 2.7143 24.6024 2.86438 24.7499C2.9383 24.8238 2.99695 24.9114 3.03697 25.008C3.07698 25.1045 3.09758 25.2079 3.09758 25.3124C3.09758 25.4169 3.07698 25.5204 3.03697 25.6169C2.99695 25.7134 2.9383 25.8011 2.86438 25.8749ZM13.8106 46.1737L11.5831 43.9462L13.8106 41.7187L16.0381 43.9462L13.8106 46.1737Z" fill="white"/>
</g>
<defs>
<clipPath id="clip0_1418_1616">
<rect width="48" height="48" fill="white"/>
</clipPath>
</defs>
</svg>
