<svg width="31" height="32" viewBox="0 0 31 32" fill="none" xmlns="http://www.w3.org/2000/svg">
<circle opacity="0.08" cx="15.5" cy="16" r="15.5" fill="#52FFA1"/>
<path d="M20.6336 17.1929C20.5246 17.1317 20.4012 17.0622 20.2524 16.9727C20.1694 16.9225 20.065 16.854 19.9544 16.7814C19.3867 16.4088 18.9566 16.145 18.5904 16.145C18.5046 16.145 18.4235 16.1596 18.3496 16.1881C18.0287 16.3116 17.7653 16.6417 17.5105 16.9608C17.4172 17.0777 17.2835 17.2451 17.2025 17.3199C16.8808 17.2615 16.2024 16.8412 15.4703 16.1091C14.7373 15.3761 14.3169 14.6969 14.2592 14.376C14.3339 14.2946 14.5026 14.16 14.6203 14.066C14.9382 13.8122 15.267 13.5498 15.3912 13.23C15.5497 12.819 15.2592 12.3276 14.798 11.6249C14.7254 11.5143 14.6568 11.4098 14.6071 11.3275C14.5172 11.1782 14.4478 11.0546 14.3865 10.9457C14.135 10.4988 13.9688 10.2034 13.3445 10.2034C12.9392 10.2034 12.3663 10.5863 11.9782 10.9661C11.4142 11.5181 11.1035 12.1554 11.1035 12.7619C11.1046 14.409 12.0239 16.2969 13.6257 17.9433C13.6284 17.946 13.6312 17.9468 13.634 17.9495C15.2804 19.5513 17.1693 20.4675 18.8164 20.4675H18.8171C19.4227 20.4675 20.0602 20.1604 20.6122 19.5967C20.9923 19.2086 21.3757 18.6399 21.3757 18.2349C21.3758 17.6106 21.0805 17.4445 20.6336 17.1929ZM18.8166 19.6165C17.4136 19.6155 15.7021 18.7652 14.2375 17.3419C12.8141 15.8772 11.9638 14.1656 11.9629 12.7627C11.9629 11.9141 13.0641 11.1073 13.3521 11.0631C13.4109 11.0633 13.4418 11.0668 13.4565 11.0693C13.4946 11.1131 13.5702 11.2476 13.6376 11.3674C13.6986 11.4758 13.7745 11.6107 13.8712 11.7713C13.9296 11.8682 14.0025 11.9791 14.0796 12.0966C14.2256 12.319 14.519 12.7661 14.5685 12.9569C14.4858 13.074 14.2291 13.2789 14.0842 13.3945C13.7134 13.6906 13.3931 13.9463 13.3931 14.3076C13.394 15.1804 14.5182 16.3723 14.8627 16.7169C15.2072 17.0614 16.3992 18.1856 17.2738 18.1864C17.6328 18.1853 17.8874 17.8663 18.1822 17.497C18.2985 17.3514 18.5046 17.0932 18.6222 17.0109C18.8128 17.06 19.2604 17.3538 19.483 17.4999C19.6005 17.577 19.7114 17.6499 19.8088 17.7087C19.9689 17.805 20.1038 17.8809 20.2122 17.9419C20.3319 18.0093 20.4664 18.085 20.5103 18.1231C20.5128 18.1377 20.5162 18.1686 20.5165 18.2274C20.4719 18.5151 19.6649 19.6155 18.8166 19.6165Z" fill="#52FFA1"/>
<path d="M24.7821 15.5411C24.7519 13.219 23.8199 11.0248 22.1577 9.36252C20.4648 7.66964 18.2302 6.7373 15.8654 6.7373C13.5827 6.7373 11.4473 7.61567 9.85236 9.21054C8.43705 10.6258 7.56874 12.5135 7.40722 14.5257C7.25404 16.4349 7.74006 18.367 8.77788 19.9914L7.36069 23.8222C7.30122 23.983 7.34298 24.1638 7.46703 24.2821C7.54855 24.3599 7.65532 24.401 7.76378 24.401C7.82032 24.401 7.87739 24.3846 7.93148 24.3616L11.6225 22.7909C13.0315 23.6679 14.6426 24.1199 16.297 24.1199H16.2972C18.5795 24.1199 20.7149 23.252 22.3096 21.6573C23.9342 20.0327 24.8123 17.8673 24.7821 15.5411ZM21.7019 21.0601C20.2694 22.4926 18.3499 23.2815 16.297 23.2814C14.7341 23.2814 13.2135 22.8239 11.8996 21.9585C11.8284 21.9115 11.746 21.8877 11.6632 21.8877C11.6064 21.8877 11.5493 21.8989 11.4955 21.9218L8.5119 23.1872L9.65917 20.0861C9.70717 19.9563 9.68972 19.8113 9.61233 19.6966C7.5036 16.5726 7.86011 12.4181 10.46 9.81825C11.8926 8.38567 13.8123 7.59668 15.8654 7.59668C18.0006 7.59668 20.0194 8.4396 21.55 9.97019C23.0529 11.4731 23.8955 13.4555 23.9228 15.5523C23.95 17.6448 23.1612 19.6008 21.7019 21.0601Z" fill="#52FFA1"/>
</svg>
