<svg width="16" height="16" viewBox="0 0 16 16" fill="none" xmlns="http://www.w3.org/2000/svg">
<g clip-path="url(#clip0_628_196)">
<path d="M15.9836 4.70404C15.9461 3.8539 15.8086 3.26944 15.6117 2.76299C15.4085 2.22541 15.096 1.74412 14.6865 1.34401C14.2864 0.937683 13.8019 0.621948 13.2705 0.421957C12.7612 0.22502 12.1797 0.0875415 11.3296 0.0500586C10.4731 0.00940124 10.2012 0 8.02891 0C5.85661 0 5.5847 0.00940124 4.73139 0.0468842C3.88125 0.0843671 3.29678 0.221967 2.79046 0.418783C2.25275 0.621948 1.77146 0.934509 1.37136 1.34401C0.965027 1.74412 0.649413 2.22858 0.449301 2.75994C0.252363 3.26944 0.114885 3.85073 0.0774023 4.70087C0.036745 5.55736 0.0273438 5.82926 0.0273438 8.00156C0.0273438 10.1739 0.036745 10.4458 0.0742279 11.2991C0.111711 12.1492 0.249311 12.7337 0.446249 13.2401C0.649413 13.7777 0.965027 14.259 1.37136 14.6591C1.77146 15.0654 2.25593 15.3812 2.78728 15.5812C3.29678 15.7781 3.87807 15.9156 4.72834 15.9531C5.58153 15.9907 5.85356 16 8.02585 16C10.1982 16 10.4701 15.9907 11.3234 15.9531C12.1735 15.9156 12.758 15.7781 13.2643 15.5812C14.3396 15.1654 15.1897 14.3153 15.6055 13.2401C15.8023 12.7306 15.9399 12.1492 15.9774 11.2991C16.0148 10.4458 16.0242 10.1739 16.0242 8.00156C16.0242 5.82926 16.0211 5.55736 15.9836 4.70404ZM14.5428 11.2366C14.5083 12.018 14.3771 12.4399 14.2677 12.7212C13.9988 13.4183 13.4456 13.9715 12.7486 14.2403C12.4673 14.3497 12.0423 14.481 11.2639 14.5153C10.42 14.5529 10.1669 14.5622 8.03208 14.5622C5.89726 14.5622 5.64099 14.5529 4.80013 14.5153C4.01872 14.481 3.59677 14.3497 3.31546 14.2403C2.96859 14.1121 2.65286 13.909 2.39658 13.6433C2.1309 13.3838 1.92774 13.0713 1.79954 12.7244C1.69014 12.4431 1.55889 12.018 1.52458 11.2397C1.48698 10.3958 1.4777 10.1426 1.4777 8.00779C1.4777 5.87297 1.48698 5.6167 1.52458 4.77596C1.55889 3.99455 1.69014 3.5726 1.79954 3.29129C1.92774 2.9443 2.1309 2.62869 2.39976 2.37229C2.65908 2.10661 2.97164 1.90345 3.31864 1.77537C3.59994 1.66597 4.02507 1.53472 4.8033 1.50029C5.64722 1.46281 5.90044 1.45341 8.03513 1.45341C10.1731 1.45341 10.4262 1.46281 11.2671 1.50029C12.0485 1.53472 12.4704 1.66597 12.7518 1.77537C13.0986 1.90345 13.4144 2.10661 13.6706 2.37229C13.9363 2.63174 14.1395 2.9443 14.2677 3.29129C14.3771 3.5726 14.5083 3.99761 14.5428 4.77596C14.5802 5.61987 14.5896 5.87297 14.5896 8.00779C14.5896 10.1426 14.5802 10.3927 14.5428 11.2366Z" fill="#1A1717" fill-opacity="0.4"/>
<path d="M8.0301 3.8916C5.76098 3.8916 3.91992 5.73254 3.91992 8.00178C3.91992 10.271 5.76098 12.112 8.0301 12.112C10.2993 12.112 12.1403 10.271 12.1403 8.00178C12.1403 5.73254 10.2993 3.8916 8.0301 3.8916ZM8.0301 10.6679C6.55801 10.6679 5.36393 9.47399 5.36393 8.00178C5.36393 6.52957 6.55801 5.33561 8.0301 5.33561C9.50231 5.33561 10.6963 6.52957 10.6963 8.00178C10.6963 9.47399 9.50231 10.6679 8.0301 10.6679Z" fill="#1A1717" fill-opacity="0.4"/>
<path d="M13.2629 3.72883C13.2629 4.25871 12.8333 4.68836 12.3033 4.68836C11.7734 4.68836 11.3438 4.25871 11.3438 3.72883C11.3438 3.19881 11.7734 2.76929 12.3033 2.76929C12.8333 2.76929 13.2629 3.19881 13.2629 3.72883Z" fill="#1A1717" fill-opacity="0.4"/>
</g>
<defs>
<clipPath id="clip0_628_196">
<rect width="16" height="16" fill="white"/>
</clipPath>
</defs>
</svg>
