<svg width="15" height="15" viewBox="0 0 15 15" fill="none" xmlns="http://www.w3.org/2000/svg">
<path d="M5.25 11.4375V12.1927C5.25004 12.4883 5.19183 12.781 5.07872 13.0541C4.9656 13.3272 4.79979 13.5753 4.59075 13.7842L4.125 14.25H10.875L10.4092 13.7842C10.2002 13.5753 10.0344 13.3272 9.92128 13.0541C9.80817 12.781 9.74996 12.4883 9.75 12.1927V11.4375M14.25 2.4375V9.75C14.25 10.1976 14.0722 10.6268 13.7557 10.9432C13.4393 11.2597 13.0101 11.4375 12.5625 11.4375H2.4375C1.98995 11.4375 1.56072 11.2597 1.24426 10.9432C0.92779 10.6268 0.75 10.1976 0.75 9.75V2.4375M14.25 2.4375C14.25 1.98995 14.0722 1.56072 13.7557 1.24426C13.4393 0.92779 13.0101 0.75 12.5625 0.75H2.4375C1.98995 0.75 1.56072 0.92779 1.24426 1.24426C0.92779 1.56072 0.75 1.98995 0.75 2.4375M14.25 2.4375V7.5C14.25 7.94755 14.0722 8.37677 13.7557 8.69324C13.4393 9.00971 13.0101 9.1875 12.5625 9.1875H2.4375C1.98995 9.1875 1.56072 9.00971 1.24426 8.69324C0.92779 8.37677 0.75 7.94755 0.75 7.5V2.4375" stroke="white" stroke-width="1.5" stroke-linecap="round" stroke-linejoin="round"/>
</svg>
