<svg width="18" height="15" viewBox="0 0 18 15" fill="none" xmlns="http://www.w3.org/2000/svg">
<path d="M17.7244 0.418305C17.5047 0.148576 17.175 0 16.7958 0C16.5913 0 16.3746 0.042822 16.1518 0.127235L0.912544 5.90116C0.102267 6.20823 -0.00679122 6.67044 0.000310609 6.91862C0.00737728 7.16557 0.141363 7.61748 0.956948 7.87835L4.18881 9.0627L5.89208 12.9616C6.0633 13.5008 6.42106 13.8791 6.87769 14.0018C6.98295 14.0301 7.09043 14.044 7.19868 14.044C7.56952 14.044 7.94922 13.8807 8.27714 13.5727L9.68829 12.247L13.1314 14.6169C13.4415 14.846 13.7789 14.967 14.1079 14.967C14.7757 14.967 15.3083 14.4781 15.4648 13.7216L17.9572 1.66738C18.0596 1.17198 17.9769 0.728394 17.7244 0.418305ZM5.25988 8.87971L9.65777 6.5213L6.59274 9.33282C6.48361 9.43291 6.42282 9.57393 6.42265 9.72089C6.42243 9.7263 6.42177 9.73158 6.42173 9.73699L6.41115 11.515L5.25988 8.87971ZM7.555 12.804C7.52248 12.8345 7.48989 12.8614 7.45768 12.8848L7.47059 10.7205L8.79923 11.635L7.555 12.804ZM16.9243 1.4538L14.432 13.508C14.4068 13.6295 14.3249 13.9123 14.1079 13.9123C14.0065 13.9123 13.8808 13.8601 13.7539 13.7653C13.7484 13.7612 13.7429 13.7573 13.7373 13.7535L9.94139 11.1407C9.94086 11.1404 9.94033 11.14 9.93984 11.1397L7.79368 9.66246L13.463 4.46209C13.6589 4.2824 13.6904 3.985 13.5366 3.76822C13.3827 3.55144 13.0915 3.48309 12.8573 3.60871L4.54098 8.06845L1.30905 6.8841C1.30669 6.88322 1.30434 6.88237 1.30195 6.88153L16.5255 1.11355C16.6538 1.06492 16.7433 1.05473 16.7958 1.05473C16.8219 1.05473 16.8848 1.05761 16.9066 1.08433C16.9344 1.11854 16.9695 1.23487 16.9243 1.4538Z" fill="#A1A1A1"/>
</svg>
